<svg width="208" height="296" viewBox="0 0 208 296" fill="none" xmlns="http://www.w3.org/2000/svg">
  <g clip-path="url(#clip0_207_2)">
    <path d="M180 113H80C91.05 113 100 121.95 100 133V153H180C191.05 153 200 144.05 200 133C200 121.95 191.05 113 180 113Z" fill="#FF6095"/>
    <path d="M100 133C100 137.963 100 153 100 153C100 153 86.0826 153 80 153C68.9543 153 60 144.046 60 133C60 121.954 68.9543 113 80 113C91.0457 113 100 121.954 100 133Z" fill="#EB4A7F"/>
    <path d="M0 20V246C-9.99995e-06 273.61 22.39 296 50 296C77.61 296 100 273.61 100 246V153H80C68.95 153 60 144.05 60 133V246C60 251.525 55.525 256 50 256C44.475 256 40 251.525 40 246V20C40 8.95 31.05 0 20 0C8.95 0 -2e-05 8.95 0 20Z" fill="#D63369"/>
  </g>
  <defs>
    <clipPath id="clip0_207_2">
      <rect width="208" height="296" fill="white"/>
    </clipPath>
  </defs>
</svg>
